<svg xmlns="http://www.w3.org/2000/svg" xmlns:xlink="http://www.w3.org/1999/xlink" width="500" zoomAndPan="magnify" viewBox="0 0 375 374.999991" height="500" preserveAspectRatio="xMidYMid meet" version="1.0"><defs><clipPath id="4dd670b7c4"><path d="M 36 35.734375 L 339.484375 35.734375 L 339.484375 338 L 36 338 Z M 36 35.734375 " clip-rule="nonzero"/></clipPath></defs><g clip-path="url(#4dd670b7c4)"><path fill="#89683a" d="M 313.894531 94.167969 C 309.601562 95.5625 305.3125 96.960938 301.015625 98.351562 C 300.464844 98.277344 299.867188 98.363281 299.253906 98.679688 C 298.824219 98.902344 298.390625 99.125 297.960938 99.347656 C 297.214844 99.589844 296.46875 99.832031 295.722656 100.074219 C 294.46875 98.992188 292.28125 98.792969 291.054688 100.566406 C 290.753906 101.003906 290.460938 101.445312 290.160156 101.882812 C 281.679688 104.632812 273.203125 107.378906 264.730469 110.144531 C 264.648438 110.171875 264.566406 110.199219 264.484375 110.226562 C 263.429688 108.609375 260.832031 108.042969 259.472656 110.210938 C 259.039062 110.902344 258.605469 111.59375 258.171875 112.285156 C 246.164062 116.199219 234.15625 120.105469 222.195312 124.15625 C 215.078125 110.316406 207.351562 96.757812 199.957031 83.074219 C 197.054688 77.707031 193.570312 72.621094 190.351562 67.441406 C 186.417969 61.117188 182.488281 54.789062 178.554688 48.464844 C 178.492188 48.277344 178.433594 48.085938 178.371094 47.894531 C 178.1875 47.320312 177.804688 46.863281 177.339844 46.511719 C 176.128906 44.566406 174.917969 42.621094 173.710938 40.671875 C 173.339844 40.074219 172.964844 39.476562 172.59375 38.878906 C 170.921875 36.191406 167.445312 37.59375 167.089844 40.371094 C 164.828125 57.929688 162.132812 75.480469 160.457031 93.101562 C 158.820312 110.328125 157.25 127.554688 155.324219 144.75 C 155.0625 144.914062 154.820312 145.144531 154.597656 145.414062 C 154.207031 145.511719 153.808594 145.601562 153.417969 145.699219 C 149.242188 146.753906 145.074219 147.820312 140.902344 148.875 C 140.265625 148.765625 139.570312 148.902344 138.902344 149.382812 C 124.441406 153.042969 109.976562 156.707031 95.515625 160.386719 C 77.375 165.003906 59.289062 169.828125 41.1875 174.589844 C 40.332031 174.8125 39.480469 175.039062 38.628906 175.261719 C 35.734375 176.023438 35.902344 180.117188 38.628906 180.960938 C 44.074219 182.644531 49.519531 184.320312 54.964844 186 C 54.953125 186.378906 54.941406 186.753906 54.929688 187.128906 C 54.816406 190.488281 59.855469 191.105469 60.730469 187.914062 C 60.742188 187.875 60.753906 187.832031 60.765625 187.789062 C 69.515625 190.488281 78.261719 193.195312 87 195.9375 C 92.8125 197.761719 98.636719 199.546875 104.453125 201.359375 C 104.546875 201.414062 104.636719 201.476562 104.746094 201.527344 C 106.617188 202.375 108.492188 203.21875 110.367188 204.0625 C 108.871094 206.828125 112.929688 210.066406 115.078125 207.496094 C 115.339844 207.179688 115.605469 206.863281 115.871094 206.546875 C 119.949219 208.390625 124.03125 210.230469 128.113281 212.074219 C 132.394531 214.007812 136.679688 215.9375 140.960938 217.871094 C 143.230469 218.898438 145.277344 219.40625 147.742188 219.898438 C 148.074219 219.964844 148.40625 220.03125 148.734375 220.09375 C 147.765625 238.171875 146.535156 256.21875 145.261719 274.285156 C 143.90625 293.523438 143.054688 312.789062 142.042969 332.046875 C 141.992188 332.976562 141.945312 333.90625 141.894531 334.835938 C 141.746094 337.6875 146.132812 338.96875 147.402344 336.328125 C 151.828125 327.109375 156.253906 317.890625 160.679688 308.667969 C 163.925781 301.914062 166.863281 294.917969 170.679688 288.457031 C 180.464844 271.898438 189.851562 255.105469 200.65625 239.191406 C 201.230469 238.34375 201.804688 237.5 202.378906 236.65625 C 217.960938 242.398438 233.539062 248.164062 249.109375 253.945312 C 266.269531 260.316406 283.527344 266.421875 300.757812 272.605469 C 301.613281 272.910156 302.46875 273.21875 303.320312 273.523438 C 306.90625 274.8125 308.453125 269.101562 304.894531 267.828125 C 300.757812 266.34375 296.617188 264.867188 292.480469 263.394531 C 291.335938 261.199219 290.1875 259.007812 289.039062 256.8125 C 288.960938 256.578125 288.859375 256.335938 288.707031 256.09375 C 288.671875 256.035156 288.636719 255.980469 288.601562 255.921875 C 288.535156 255.785156 288.449219 255.648438 288.355469 255.511719 C 281.882812 243.15625 275.367188 230.824219 269.058594 218.390625 C 261.648438 203.789062 254.628906 188.988281 247.382812 174.304688 C 247.421875 174.253906 247.457031 174.207031 247.496094 174.15625 C 248.53125 172.789062 249.570312 171.421875 250.605469 170.050781 C 250.6875 169.945312 250.726562 169.886719 250.773438 169.820312 C 250.84375 169.765625 250.960938 169.660156 251.207031 169.40625 C 259.488281 161.027344 267.453125 152.3125 275.570312 143.773438 C 288.886719 129.761719 301.839844 115.417969 314.890625 101.160156 C 315.515625 100.476562 316.144531 99.789062 316.769531 99.105469 C 318.65625 97.042969 316.84375 93.207031 313.894531 94.167969 Z M 204.28125 130.371094 C 203.695312 130.582031 203.105469 130.789062 202.519531 130.996094 C 201.9375 129.324219 201.355469 127.648438 200.773438 125.972656 C 201.941406 127.441406 203.113281 128.90625 204.28125 130.371094 Z M 178.746094 115.132812 C 179.230469 117.339844 179.667969 119.5625 180.101562 121.78125 C 179.289062 119.082031 178.476562 116.382812 177.664062 113.683594 C 177.109375 111.847656 176.558594 110.011719 176.003906 108.175781 C 176.140625 106.957031 176.273438 105.738281 176.40625 104.519531 C 177.1875 108.058594 177.964844 111.59375 178.746094 115.132812 Z M 186.832031 125.726562 C 186.042969 121.140625 185.113281 116.582031 184.140625 112.03125 C 186.402344 119.628906 187.636719 127.539062 189.277344 135.304688 C 189.304688 135.429688 189.332031 135.554688 189.355469 135.679688 C 189.101562 135.769531 188.84375 135.863281 188.585938 135.953125 C 188 132.542969 187.417969 129.136719 186.832031 125.726562 Z M 202.484375 166.582031 C 205.257812 164.964844 208.027344 163.351562 210.800781 161.734375 C 207.277344 166.332031 203.757812 170.925781 200.238281 175.523438 C 200.464844 173.261719 200.695312 171 200.921875 168.738281 C 201.441406 168.019531 201.964844 167.300781 202.484375 166.582031 Z M 192.066406 182.863281 C 192.523438 183.378906 192.976562 183.890625 193.433594 184.40625 C 193.101562 184.839844 192.769531 185.273438 192.4375 185.710938 C 192.324219 185.855469 192.210938 186.003906 192.097656 186.152344 C 192.066406 186.183594 192.035156 186.214844 191.988281 186.269531 C 190.078125 188.308594 188.300781 190.492188 186.507812 192.652344 C 188.359375 189.386719 190.214844 186.125 192.066406 182.863281 Z M 213.761719 179.789062 C 213.585938 179.59375 213.40625 179.425781 213.210938 179.292969 C 213.488281 178.613281 213.761719 177.929688 214.035156 177.25 C 215.175781 175.523438 216.320312 173.800781 217.460938 172.074219 C 219.929688 168.34375 222.632812 164.683594 224.902344 160.828125 C 224.953125 160.742188 225.003906 160.664062 225.046875 160.597656 C 225.132812 160.492188 225.214844 160.386719 225.296875 160.28125 C 225.53125 159.988281 225.761719 159.695312 225.996094 159.402344 C 226.046875 159.675781 226.097656 159.949219 226.152344 160.21875 C 222.027344 166.75 217.910156 173.28125 213.761719 179.789062 Z M 215.21875 150.875 C 214.386719 151.289062 213.554688 151.707031 212.722656 152.121094 C 212.960938 151.03125 212.378906 149.902344 211.480469 149.210938 C 211.550781 149.089844 211.621094 148.96875 211.691406 148.847656 C 211.835938 148.601562 211.976562 148.355469 212.121094 148.109375 C 213.164062 147.703125 214.207031 147.296875 215.253906 146.890625 C 213.878906 148.03125 214.160156 149.777344 215.21875 150.875 Z M 186.085938 202.558594 C 185.761719 203.046875 185.441406 203.53125 185.117188 204.019531 C 185.125 203.90625 185.128906 203.792969 185.132812 203.679688 C 185.453125 203.308594 185.765625 202.929688 186.085938 202.558594 Z M 196.152344 157.4375 C 195.457031 157.921875 194.765625 158.402344 194.070312 158.886719 C 193.632812 158.96875 193.195312 159.050781 192.761719 159.132812 C 193.320312 158.175781 193.878906 157.21875 194.441406 156.261719 C 195.089844 155.882812 195.738281 155.5 196.382812 155.121094 C 196.304688 155.890625 196.230469 156.664062 196.152344 157.4375 Z M 173.324219 136.914062 C 173.25 137.429688 173.179688 137.941406 173.105469 138.453125 C 173.167969 137.894531 173.226562 137.335938 173.289062 136.773438 C 173.300781 136.820312 173.3125 136.867188 173.324219 136.914062 Z M 173.195312 217.414062 C 172.90625 218.011719 172.613281 218.613281 172.320312 219.210938 C 172.148438 219.148438 171.976562 219.082031 171.808594 219.019531 C 172.269531 218.484375 172.734375 217.949219 173.195312 217.414062 Z M 169.527344 224.460938 C 169.59375 224.484375 169.660156 224.507812 169.726562 224.535156 C 169.371094 225.261719 169.019531 225.988281 168.664062 226.71875 C 168.949219 225.964844 169.238281 225.210938 169.527344 224.460938 Z M 216.945312 215.199219 C 218.976562 217.097656 221.007812 219 223.039062 220.902344 C 223.230469 221.167969 223.425781 221.4375 223.621094 221.703125 C 223.777344 221.917969 223.933594 222.132812 224.089844 222.347656 C 221.199219 220.71875 218.308594 219.085938 215.414062 217.453125 C 215.925781 216.699219 216.4375 215.949219 216.945312 215.199219 Z M 143.84375 198.863281 C 143.558594 198.777344 143.269531 198.695312 142.984375 198.609375 C 144.621094 196.40625 146.253906 194.203125 147.890625 192.003906 C 146.542969 194.289062 145.191406 196.574219 143.84375 198.863281 Z M 195.132812 133.648438 C 194.617188 131.082031 194.101562 128.519531 193.585938 125.957031 C 194.511719 128.371094 195.433594 130.789062 196.359375 133.207031 C 195.949219 133.355469 195.539062 133.5 195.132812 133.648438 Z M 182.300781 243.21875 C 183.886719 239.136719 185.472656 235.054688 187.058594 230.976562 C 188.015625 231.332031 188.976562 231.691406 189.933594 232.042969 C 189.925781 232.058594 189.921875 232.074219 189.914062 232.085938 C 187.375 235.796875 184.835938 239.507812 182.300781 243.21875 Z M 236.019531 202.394531 C 234.570312 199.914062 233.121094 197.433594 231.671875 194.953125 C 232.292969 194.15625 232.902344 193.355469 233.519531 192.558594 C 238.082031 200.117188 242.644531 207.671875 247.207031 215.226562 C 245.261719 213.054688 243.203125 210.988281 241.171875 208.871094 C 239.996094 207.640625 238.816406 206.410156 237.636719 205.179688 C 237.097656 204.25 236.5625 203.320312 236.019531 202.394531 Z M 254.25 149.644531 C 256.03125 146.71875 257.808594 143.792969 259.585938 140.867188 C 259.910156 141.214844 260.296875 141.488281 260.738281 141.621094 C 258.59375 145.46875 256.40625 149.289062 253.78125 152.820312 C 251.46875 155.929688 249.148438 159.03125 246.828125 162.136719 C 249.304688 157.964844 251.742188 153.773438 254.25 149.644531 Z M 175.300781 71.710938 C 175.246094 71.558594 175.1875 71.40625 175.128906 71.257812 C 175.050781 71.050781 174.957031 70.863281 174.855469 70.691406 C 174.890625 70.484375 174.921875 70.273438 174.957031 70.066406 C 175.15625 70.632812 175.355469 71.199219 175.554688 71.765625 C 175.472656 71.742188 175.386719 71.726562 175.300781 71.710938 Z M 175.082031 98.488281 C 174.304688 98.175781 173.398438 98.128906 172.628906 98.394531 C 172.6875 97.902344 172.75 97.40625 172.808594 96.910156 C 172.976562 95.546875 172.085938 94.621094 170.953125 94.230469 C 171.410156 91.476562 171.867188 88.722656 172.324219 85.964844 C 173.242188 90.140625 174.160156 94.3125 175.082031 98.488281 Z M 137.476562 194.355469 C 137.039062 195.160156 136.601562 195.964844 136.164062 196.773438 C 135.617188 196.640625 135.074219 196.488281 134.527344 196.363281 C 137.007812 192.933594 139.492188 189.507812 141.972656 186.078125 C 140.472656 188.839844 138.976562 191.597656 137.476562 194.355469 Z M 155.1875 209.773438 C 155.507812 209.464844 155.746094 209.0625 155.902344 208.621094 C 158.394531 208.601562 159.5 205.335938 157.921875 203.632812 C 158.164062 203.304688 158.40625 202.980469 158.652344 202.652344 C 159.304688 203.261719 160.289062 203.5625 161.226562 203.503906 C 161.203125 203.816406 161.175781 204.128906 161.152344 204.4375 C 160.15625 206.320312 159.160156 208.203125 158.164062 210.082031 C 157.714844 210.5 157.386719 211.070312 157.261719 211.789062 C 157.039062 212.210938 156.820312 212.628906 156.597656 213.046875 C 156.085938 212.777344 155.574219 212.507812 155.066406 212.238281 C 155.105469 211.417969 155.144531 210.59375 155.1875 209.773438 Z M 153.515625 160.105469 C 153.191406 160.554688 152.871094 161 152.546875 161.445312 C 152.894531 160.804688 153.238281 160.167969 153.585938 159.527344 C 153.5625 159.722656 153.539062 159.914062 153.515625 160.105469 Z M 118.429688 190.976562 C 117.378906 190.578125 116.324219 190.179688 115.273438 189.78125 C 119.050781 185.769531 122.828125 181.757812 126.601562 177.75 C 123.878906 182.15625 121.15625 186.566406 118.429688 190.976562 Z M 161.515625 286.417969 C 161.523438 286.390625 161.542969 286.375 161.550781 286.347656 C 163.585938 280.078125 165.617188 273.8125 167.652344 267.546875 C 167.972656 268.003906 168.453125 268.351562 169.007812 268.558594 C 169.4375 268.859375 169.945312 269.046875 170.464844 269.109375 C 167.433594 274.996094 164.410156 280.886719 161.410156 286.789062 C 161.445312 286.664062 161.480469 286.539062 161.515625 286.417969 Z M 205.011719 221.855469 C 205.070312 221.886719 205.125 221.921875 205.179688 221.953125 C 204.601562 222.824219 204.019531 223.6875 203.4375 224.554688 C 203.960938 223.65625 204.488281 222.753906 205.011719 221.855469 Z M 230.921875 217.027344 C 230.816406 216.796875 230.710938 216.5625 230.601562 216.328125 C 230.652344 216.402344 230.699219 216.472656 230.746094 216.546875 C 230.980469 216.910156 231.21875 217.273438 231.457031 217.636719 C 231.277344 217.433594 231.101562 217.230469 230.921875 217.027344 Z M 262.207031 117.78125 C 262.210938 117.769531 262.21875 117.761719 262.222656 117.75 C 262.304688 117.722656 262.324219 117.726562 262.207031 117.78125 Z M 129.253906 191.972656 C 128.789062 192.832031 128.320312 193.691406 127.855469 194.554688 C 127.359375 194.363281 126.863281 194.175781 126.363281 193.988281 C 128.074219 191.9375 129.785156 189.890625 131.5 187.839844 C 130.75 189.21875 130.003906 190.597656 129.253906 191.972656 Z M 109.875 186.050781 C 109.5 186.527344 109.121094 187.007812 108.746094 187.484375 C 108.605469 187.441406 108.464844 187.398438 108.324219 187.355469 C 109.074219 186.628906 109.820312 185.898438 110.570312 185.167969 C 110.335938 185.464844 110.105469 185.757812 109.875 186.050781 Z M 91.765625 183.769531 C 91.5625 183.726562 91.355469 183.683594 91.152344 183.640625 C 91.898438 182.980469 92.648438 182.320312 93.398438 181.660156 C 92.855469 182.363281 92.3125 183.066406 91.765625 183.769531 Z M 76.132812 180.519531 C 75.929688 180.476562 75.730469 180.4375 75.527344 180.394531 C 75.890625 180.15625 76.257812 179.917969 76.621094 179.679688 C 76.457031 179.960938 76.296875 180.242188 76.132812 180.519531 Z M 210.28125 225.015625 C 214.886719 227.777344 219.488281 230.542969 224.09375 233.304688 C 218.75 231.625 213.40625 229.953125 208.058594 228.289062 C 208.800781 227.199219 209.539062 226.105469 210.28125 225.015625 Z M 244.695312 229.90625 C 242.195312 227.355469 239.5 225.003906 236.75 222.714844 C 238.152344 222.53125 239.421875 221.4375 239.488281 220.042969 C 239.570312 220.1875 239.652344 220.332031 239.738281 220.472656 C 242.066406 224.464844 244.523438 228.378906 247.015625 232.269531 C 246.242188 231.480469 245.46875 230.695312 244.695312 229.90625 Z M 240.957031 182.792969 C 240.992188 182.75 241.023438 182.703125 241.058594 182.660156 C 241.167969 182.917969 241.277344 183.175781 241.386719 183.433594 C 241.246094 183.21875 241.101562 183.007812 240.957031 182.792969 Z M 262.238281 117.722656 C 262.351562 117.503906 262.460938 117.285156 262.574219 117.066406 C 263.367188 116.808594 264.164062 116.550781 264.957031 116.292969 C 264.027344 116.738281 263.113281 117.207031 262.238281 117.722656 Z M 246.4375 124.128906 C 245.691406 124.425781 244.949219 124.726562 244.207031 125.023438 C 244.230469 124.367188 243.988281 123.773438 243.566406 123.300781 C 245.160156 122.773438 246.757812 122.25 248.351562 121.726562 C 247.710938 122.527344 247.078125 123.328125 246.4375 124.128906 Z M 235.570312 127.757812 C 235.609375 127.167969 235.488281 126.582031 235.234375 126.070312 C 235.90625 125.847656 236.578125 125.625 237.25 125.402344 C 236.6875 126.183594 236.128906 126.972656 235.570312 127.757812 Z M 172.382812 49.636719 C 171.472656 55.132812 170.5625 60.628906 169.652344 66.128906 C 170.394531 60.371094 171.144531 54.613281 171.894531 48.859375 C 172.058594 49.117188 172.21875 49.378906 172.382812 49.636719 Z M 143.140625 162.222656 C 144.421875 160.144531 145.703125 158.070312 146.988281 155.996094 C 147.542969 155.097656 147.507812 154.160156 147.136719 153.382812 C 147.945312 153.179688 148.753906 152.976562 149.5625 152.773438 C 147.421875 155.921875 145.28125 159.070312 143.140625 162.222656 Z M 121.191406 166.570312 C 121.40625 166.28125 121.621094 165.988281 121.835938 165.699219 C 122.90625 164.261719 123.972656 162.824219 125.039062 161.382812 C 125.675781 160.527344 125.695312 159.648438 125.359375 158.90625 C 127.023438 158.484375 128.691406 158.058594 130.359375 157.636719 C 127.304688 160.613281 124.246094 163.59375 121.191406 166.570312 Z M 116.226562 161.773438 C 116.390625 161.558594 116.554688 161.347656 116.722656 161.132812 C 116.730469 161.121094 116.738281 161.109375 116.746094 161.09375 C 116.835938 161.074219 116.921875 161.050781 117.007812 161.027344 C 116.75 161.277344 116.488281 161.523438 116.226562 161.773438 Z M 101.015625 167.101562 C 101.0625 166.410156 100.871094 165.753906 100.507812 165.21875 C 101.75 164.902344 102.988281 164.589844 104.230469 164.273438 C 103.160156 165.214844 102.085938 166.160156 101.015625 167.101562 Z M 73.136719 174.90625 C 73.140625 174.019531 72.703125 173.160156 72.046875 172.5625 C 74.644531 171.878906 77.25 171.207031 79.851562 170.53125 C 77.613281 171.988281 75.375 173.449219 73.136719 174.90625 Z M 63.835938 175.589844 C 63.785156 175.296875 63.679688 175.03125 63.539062 174.785156 C 64.332031 174.574219 65.125 174.367188 65.917969 174.15625 C 65.222656 174.636719 64.53125 175.113281 63.835938 175.589844 Z M 150.40625 285.660156 C 150.148438 290.980469 149.890625 296.300781 149.632812 301.621094 C 149.585938 302.613281 149.921875 303.335938 150.453125 303.804688 C 150 305.40625 149.546875 307.011719 149.09375 308.613281 C 149.484375 300.722656 149.921875 292.828125 150.445312 284.945312 C 150.433594 285.183594 150.417969 285.421875 150.40625 285.660156 Z M 148.675781 317.222656 C 148.984375 317.445312 149.328125 317.617188 149.691406 317.730469 C 149.304688 318.550781 148.917969 319.375 148.53125 320.199219 C 148.582031 319.207031 148.628906 318.214844 148.675781 317.222656 Z M 245.816406 246.34375 C 245.972656 246.433594 246.125 246.527344 246.277344 246.621094 C 245.457031 246.316406 244.636719 246.011719 243.816406 245.707031 C 244.484375 245.921875 245.152344 246.132812 245.816406 246.34375 Z M 267.5625 253.339844 C 265.144531 249.566406 262.730469 245.792969 260.316406 242.019531 C 260.578125 242.367188 260.839844 242.714844 261.101562 243.0625 C 264.230469 247.21875 267.359375 251.371094 270.488281 255.527344 C 269.65625 255.226562 268.828125 254.925781 267.996094 254.621094 C 267.964844 254.203125 267.835938 253.769531 267.5625 253.339844 Z M 301.367188 107.261719 C 301.210938 107.183594 301.050781 107.117188 300.878906 107.070312 C 300.21875 106.359375 299.242188 105.984375 298.105469 106.390625 C 297.148438 106.730469 296.195312 107.074219 295.238281 107.414062 C 296.910156 106.546875 298.582031 105.679688 300.253906 104.8125 C 301.835938 104.296875 303.414062 103.78125 304.996094 103.269531 C 303.785156 104.601562 302.574219 105.929688 301.367188 107.261719 Z M 93.539062 166.988281 C 91.71875 168.570312 89.898438 170.148438 88.078125 171.730469 C 88.640625 170.613281 88.347656 169.375 87.621094 168.507812 C 88.527344 168.277344 89.425781 168.035156 90.332031 167.804688 C 91.402344 167.53125 92.472656 167.261719 93.539062 166.988281 Z M 50.132812 178.332031 C 51.84375 177.878906 53.558594 177.425781 55.269531 176.972656 C 55.238281 177.945312 55.207031 178.917969 55.171875 179.890625 C 53.492188 179.371094 51.8125 178.851562 50.132812 178.332031 Z M 154.714844 221.285156 C 155.167969 221.675781 155.738281 221.925781 156.339844 222.007812 C 156.328125 222.148438 156.316406 222.289062 156.304688 222.429688 C 155.398438 222.765625 154.652344 223.527344 154.4375 224.699219 C 154.464844 224.15625 154.5 223.613281 154.527344 223.070312 C 154.558594 222.46875 154.585938 221.867188 154.617188 221.265625 C 154.648438 221.273438 154.683594 221.277344 154.714844 221.285156 Z M 278.386719 258.367188 C 278.648438 257.671875 278.625 256.832031 278.136719 255.925781 C 277.515625 254.765625 276.894531 253.605469 276.273438 252.449219 C 278.492188 254.453125 280.710938 256.457031 282.929688 258.460938 C 283.179688 258.753906 283.433594 259.042969 283.683594 259.332031 C 283.882812 259.714844 284.082031 260.09375 284.285156 260.476562 C 282.316406 259.773438 280.351562 259.070312 278.386719 258.367188 Z M 271.910156 139.050781 C 273.03125 137.445312 274.183594 135.867188 275.285156 134.25 C 276.140625 132.988281 277 131.726562 277.855469 130.464844 C 280.058594 128.886719 282.261719 127.308594 284.460938 125.726562 C 281.933594 128.453125 279.398438 131.171875 276.839844 133.863281 C 275.195312 135.59375 273.554688 137.320312 271.910156 139.050781 Z M 384.734375 59.199219 C 387.058594 58.007812 389.601562 56.96875 391.808594 55.566406 C 390.664062 56.292969 391.761719 55.589844 392.394531 55.328125 C 393.789062 54.757812 395.1875 54.183594 396.585938 53.609375 C 401.011719 51.792969 405.4375 49.980469 409.863281 48.164062 C 417.363281 45.089844 424.816406 41.824219 432.386719 38.929688 C 438.210938 36.703125 444.226562 34.890625 450.128906 32.882812 C 458.210938 30.136719 466.261719 27.257812 474.390625 24.640625 C 479.824219 22.890625 485.621094 21.929688 491.175781 20.621094 C 499.917969 18.5625 508.65625 16.507812 517.394531 14.449219 C 518.148438 14.273438 519.238281 14.085938 517.996094 14.242188 C 518.855469 14.132812 519.714844 14.035156 520.574219 13.929688 C 524.773438 13.421875 528.96875 12.914062 533.167969 12.410156 C 542.304688 11.304688 551.445312 10.203125 560.582031 9.097656 C 561.175781 9.027344 561.769531 8.953125 562.363281 8.882812 C 566.089844 8.433594 566.136719 2.519531 562.363281 2.972656 C 547.5625 4.761719 532.71875 6.332031 517.945312 8.335938 C 511.226562 9.25 504.496094 11.417969 497.902344 12.96875 C 489.882812 14.859375 481.742188 16.480469 473.792969 18.644531 C 467.847656 20.265625 462.015625 22.613281 456.183594 24.59375 C 448.019531 27.367188 439.828125 30.0625 431.695312 32.917969 C 426.136719 34.867188 420.726562 37.367188 415.277344 39.601562 C 407.046875 42.976562 398.816406 46.351562 390.585938 49.726562 C 385.371094 51.867188 380.417969 54.78125 375.410156 57.351562 C 367.148438 61.589844 358.882812 65.832031 350.621094 70.070312 C 350.089844 70.34375 349.554688 70.617188 349.023438 70.890625 C 345.636719 72.628906 348.625 77.726562 352.003906 75.992188 C 358.433594 72.695312 364.863281 69.394531 371.292969 66.097656 C 375.773438 63.796875 380.253906 61.5 384.734375 59.199219 Z M 747.464844 124.96875 C 734.660156 123.621094 721.859375 122.273438 709.054688 120.925781 C 699.953125 119.964844 691.007812 119.402344 681.859375 118.996094 C 673.574219 118.628906 665.289062 118.257812 657.003906 117.890625 C 653.480469 117.734375 649.929688 117.429688 646.402344 117.449219 C 632.59375 117.523438 618.761719 118.222656 604.957031 118.605469 C 595.691406 118.867188 586.429688 118.925781 577.160156 119 C 569.101562 119.066406 561.039062 119.128906 552.980469 119.191406 C 549.867188 119.21875 546.777344 119.117188 543.695312 119.535156 C 529.472656 121.460938 515.25 123.382812 501.027344 125.308594 C 499.195312 125.554688 497.363281 125.804688 495.53125 126.050781 C 495.5 126.054688 495.484375 126.054688 495.433594 126.058594 C 494.761719 126.117188 494.089844 126.210938 493.417969 126.285156 C 486.570312 127.050781 479.722656 127.816406 472.878906 128.585938 C 462.554688 129.738281 452.097656 130.480469 441.855469 132.257812 C 427.554688 134.746094 413.253906 137.230469 398.953125 139.714844 C 397.695312 139.933594 396.441406 140.152344 395.183594 140.371094 C 391.445312 141.019531 393.027344 146.714844 396.753906 146.066406 C 409.347656 143.878906 421.941406 141.691406 434.535156 139.503906 C 437.539062 138.980469 440.542969 138.457031 443.546875 137.9375 C 444.324219 137.800781 445.101562 137.683594 445.875 137.53125 C 445.933594 137.519531 445.964844 137.515625 446.007812 137.503906 C 451.136719 137.070312 456.257812 136.355469 461.371094 135.78125 C 473.195312 134.457031 485.074219 133.375 496.867188 131.78125 C 510.460938 129.945312 524.054688 128.105469 537.648438 126.265625 C 540.1875 125.921875 542.726562 125.578125 545.265625 125.234375 C 545.488281 125.203125 545.714844 125.175781 545.941406 125.140625 C 546.085938 125.148438 546.414062 125.148438 546.683594 125.152344 C 552.773438 125.234375 558.878906 125.054688 564.96875 125.007812 C 575.921875 124.917969 586.890625 125.019531 597.839844 124.714844 C 612.171875 124.3125 626.503906 123.914062 640.835938 123.511719 C 650.425781 123.246094 659.988281 123.933594 669.570312 124.359375 C 679.785156 124.8125 690.105469 124.835938 700.277344 125.910156 C 714.78125 127.4375 729.285156 128.964844 743.789062 130.492188 C 745.015625 130.621094 746.238281 130.75 747.464844 130.878906 C 751.242188 131.277344 751.214844 125.363281 747.464844 124.96875 Z M 544.574219 262.683594 C 532.011719 260.648438 519.445312 258.617188 506.882812 256.582031 C 496.613281 254.921875 486.339844 253.300781 476.070312 251.667969 C 470.359375 250.757812 464.65625 249.796875 458.9375 248.941406 C 454.789062 248.324219 450.546875 248.140625 446.371094 247.769531 C 435.226562 246.777344 424.015625 245.308594 412.828125 244.871094 C 399.308594 244.335938 385.789062 243.804688 372.269531 243.273438 C 371.878906 243.261719 371.492188 243.246094 371.105469 243.230469 C 367.300781 243.078125 367.308594 248.988281 371.105469 249.136719 C 383.769531 249.636719 396.433594 250.132812 409.097656 250.632812 C 419.382812 251.035156 429.628906 252.1875 439.882812 253.101562 C 445.753906 253.625 451.660156 254.394531 457.550781 254.675781 C 457.570312 254.675781 457.570312 254.675781 457.585938 254.675781 C 458.300781 254.800781 459.019531 254.902344 459.734375 255.019531 C 462.816406 255.507812 465.894531 255.996094 468.976562 256.488281 C 479.949219 258.234375 490.929688 259.953125 501.898438 261.730469 C 515.214844 263.882812 528.535156 266.039062 541.851562 268.195312 C 542.234375 268.257812 542.621094 268.320312 543.003906 268.378906 C 546.722656 268.980469 548.324219 263.289062 544.574219 262.683594 Z M 544.574219 262.683594 " fill-opacity="1" fill-rule="nonzero"/></g></svg>