<svg xmlns="http://www.w3.org/2000/svg" xmlns:xlink="http://www.w3.org/1999/xlink" width="800" zoomAndPan="magnify" viewBox="0 0 600 225" height="300" preserveAspectRatio="xMidYMid meet" version="1.0"><defs><g/><clipPath id="ca993b606d"><path d="M 70 119 L 175.875 119 L 175.875 184 L 70 184 Z M 70 119 " clip-rule="nonzero"/></clipPath><clipPath id="c88b22d68d"><path d="M 25.875 34.261719 L 165 34.261719 L 165 191 L 25.875 191 Z M 25.875 34.261719 " clip-rule="nonzero"/></clipPath></defs><g clip-path="url(#ca993b606d)"><path fill="#ff7e0e" d="M 147.476562 157.132812 C 152.175781 148.921875 154.859375 139.410156 154.859375 129.273438 C 154.859375 125.921875 154.566406 122.640625 154.003906 119.453125 C 151.730469 132.097656 145.003906 143.203125 135.507812 151.078125 C 130.011719 155.632812 121.832031 154.710938 117.53125 149.011719 L 109.507812 138.375 C 108.171875 136.605469 106.082031 135.566406 103.867188 135.566406 L 73.285156 135.566406 C 73.277344 135.566406 73.273438 135.570312 73.265625 135.570312 C 71.179688 135.582031 69.824219 137.785156 70.765625 139.652344 L 71.980469 142.078125 C 74.242188 146.585938 78.699219 149.582031 83.726562 149.976562 L 85.539062 150.117188 L 93.46875 150.746094 C 95.714844 150.921875 97.738281 152.164062 98.914062 154.085938 L 102.507812 159.964844 L 104.523438 163.261719 L 115.804688 181.714844 C 116.003906 182.042969 116.257812 182.332031 116.542969 182.570312 C 117.371094 183.261719 118.492188 183.550781 119.578125 183.28125 C 119.585938 183.28125 119.59375 183.277344 119.601562 183.277344 C 148.863281 176.054688 171.40625 151.78125 176.085938 121.597656 C 171.980469 137.082031 161.429688 149.941406 147.476562 157.132812 " fill-opacity="1" fill-rule="nonzero"/></g><g clip-path="url(#c88b22d68d)"><path fill="#1b75d0" d="M 96.753906 155.402344 C 96.003906 154.175781 94.703125 153.378906 93.269531 153.265625 L 83.527344 152.5 C 77.65625 152.035156 72.363281 148.476562 69.71875 143.214844 L 68.566406 140.917969 C 67.75 139.285156 67.730469 137.332031 68.632812 135.746094 C 69.566406 134.105469 71.25 133.101562 73.117188 133.042969 L 73.285156 133.039062 L 83.078125 133.039062 C 79.882812 128 74.132812 125.164062 68.175781 125.722656 L 58.003906 126.671875 C 53.644531 127.078125 49.730469 124.074219 48.925781 119.773438 C 48.332031 116.582031 48.019531 113.292969 48.019531 109.933594 C 48.019531 92.886719 56.003906 77.707031 68.433594 67.925781 C 56.121094 76.035156 46.535156 87.953125 41.363281 102.003906 C 46.023438 68.152344 75.0625 42.074219 110.195312 42.074219 C 131.945312 42.074219 151.355469 52.070312 164.097656 67.710938 C 150.558594 47.65625 127.644531 34.453125 101.640625 34.386719 C 60.019531 34.277344 25.957031 68.191406 25.894531 109.816406 C 25.871094 124.46875 30.027344 138.148438 37.226562 149.738281 C 37.378906 149.984375 37.527344 150.230469 37.683594 150.472656 L 47.769531 148.761719 C 52.273438 148 55.980469 152.355469 54.449219 156.660156 C 54.40625 156.777344 54.378906 156.84375 54.378906 156.84375 C 60.871094 159.203125 59.773438 165.527344 59.773438 165.527344 C 65.507812 168.140625 63.148438 173.539062 63.148438 173.539062 C 65.175781 174.375 65.886719 176.015625 66.070312 176.550781 C 66.164062 176.824219 66.265625 177.09375 66.371094 177.367188 L 70.292969 187.425781 C 70.96875 189.15625 73.039062 190.570312 74.894531 190.570312 C 77.238281 190.570312 78.859375 188.230469 78.035156 186.039062 L 76.199219 181.152344 L 73.753906 174.636719 C 73.582031 174.179688 73.890625 173.683594 74.386719 173.648438 C 74.710938 173.621094 75.007812 173.835938 75.132812 174.136719 L 78.347656 181.878906 L 80.730469 187.613281 C 81.550781 189.585938 83.714844 190.71875 85.765625 190.117188 C 88.222656 189.398438 89.445312 186.648438 88.335938 184.34375 C 88.335938 184.339844 88.335938 184.339844 88.332031 184.335938 L 82.445312 172.167969 C 82.191406 171.648438 82.535156 171.03125 83.113281 170.976562 C 83.445312 170.945312 83.769531 171.117188 83.925781 171.414062 L 91.09375 184.769531 L 91.984375 186.425781 C 92.859375 188.058594 94.777344 188.910156 96.539062 188.328125 C 97.90625 187.875 98.816406 186.730469 99.058594 185.4375 C 99.207031 184.648438 99.105469 183.804688 98.703125 183.027344 L 93.09375 172.15625 C 92.847656 171.675781 93.027344 171.0625 93.527344 170.859375 C 93.96875 170.675781 94.460938 170.863281 94.675781 171.269531 L 101.015625 183.246094 C 101.527344 184.210938 102.292969 184.960938 103.183594 185.457031 C 104.667969 186.28125 106.511719 186.398438 108.15625 185.621094 C 108.472656 185.472656 108.765625 185.292969 109.035156 185.097656 C 111.285156 183.464844 111.988281 180.324219 110.480469 177.855469 L 96.753906 155.402344 " fill-opacity="1" fill-rule="nonzero"/></g><path fill="#ff7e0e" d="M 41.953125 159.945312 L 49.882812 158.628906 C 52.265625 158.234375 53.875 155.984375 53.480469 153.605469 C 53.085938 151.222656 50.835938 149.613281 48.453125 150.007812 L 40.523438 151.324219 C 38.140625 151.71875 36.53125 153.96875 36.925781 156.347656 C 37.320312 158.730469 39.570312 160.339844 41.953125 159.945312 " fill-opacity="1" fill-rule="nonzero"/><path fill="#ff7e0e" d="M 57.527344 162.203125 C 57.132812 159.824219 54.882812 158.214844 52.5 158.609375 L 41.675781 160.679688 C 39.292969 161.074219 37.683594 163.324219 38.078125 165.703125 C 38.472656 168.082031 40.722656 169.695312 43.105469 169.296875 L 53.929688 167.230469 C 56.3125 166.832031 57.921875 164.582031 57.527344 162.203125 " fill-opacity="1" fill-rule="nonzero"/><path fill="#ff7e0e" d="M 61.179688 171.199219 C 60.785156 168.816406 58.535156 167.207031 56.15625 167.601562 L 48.222656 168.917969 C 45.84375 169.3125 44.234375 171.5625 44.628906 173.945312 C 45.023438 176.324219 47.273438 177.933594 49.652344 177.539062 L 57.585938 176.222656 C 59.964844 175.828125 61.574219 173.578125 61.179688 171.199219 " fill-opacity="1" fill-rule="nonzero"/><path fill="#ff7e0e" d="M 61.664062 176.035156 L 55.148438 177.070312 C 52.769531 177.464844 51.160156 179.714844 51.554688 182.097656 C 51.949219 184.476562 54.199219 186.085938 56.578125 185.691406 L 63.09375 184.652344 C 65.472656 184.257812 67.082031 182.007812 66.6875 179.628906 C 66.292969 177.25 64.042969 175.640625 61.664062 176.035156 " fill-opacity="1" fill-rule="nonzero"/><g fill="#16589a" fill-opacity="1"><g transform="translate(176.090033, 123.960541)"><g><path d="M 16.078125 0.6875 C 11.796875 0.6875 8.65625 -0.863281 6.65625 -3.96875 C 4.664062 -7.082031 3.671875 -12.226562 3.671875 -19.40625 L 3.671875 -28.984375 C 3.671875 -35.546875 4.539062 -40.707031 6.28125 -44.46875 C 8.019531 -48.226562 11.203125 -50.109375 15.828125 -50.109375 C 18.734375 -50.109375 21.46875 -48.828125 24.03125 -46.265625 L 24.03125 -69.265625 L 33.1875 -69.265625 L 33.1875 0 L 24.03125 0 L 24.03125 -3.171875 C 21.632812 -0.597656 18.984375 0.6875 16.078125 0.6875 Z M 18.390625 -6.5 C 20.210938 -6.5 22.09375 -7.125 24.03125 -8.375 L 24.03125 -40.796875 C 21.914062 -42.210938 19.976562 -42.921875 18.21875 -42.921875 C 14.625 -42.921875 12.828125 -39.472656 12.828125 -32.578125 L 12.828125 -18.640625 C 12.828125 -14.648438 13.195312 -11.628906 13.9375 -9.578125 C 14.675781 -7.523438 16.160156 -6.5 18.390625 -6.5 Z M 18.390625 -6.5 "/></g></g></g><g fill="#16589a" fill-opacity="1"><g transform="translate(212.175893, 123.960541)"><g><path d="M 18.296875 0.6875 C 14.484375 0.6875 11.519531 -0.0351562 9.40625 -1.484375 C 7.300781 -2.941406 5.816406 -5.097656 4.953125 -7.953125 C 4.097656 -10.804688 3.671875 -14.507812 3.671875 -19.0625 L 3.671875 -30.359375 C 3.671875 -37.203125 4.738281 -42.203125 6.875 -45.359375 C 9.019531 -48.523438 12.828125 -50.109375 18.296875 -50.109375 C 22.285156 -50.109375 25.289062 -49.28125 27.3125 -47.625 C 29.34375 -45.976562 30.6875 -43.65625 31.34375 -40.65625 C 32 -37.664062 32.328125 -33.632812 32.328125 -28.5625 L 32.328125 -24.546875 L 12.828125 -24.546875 L 12.828125 -14.625 C 12.828125 -11.601562 13.269531 -9.421875 14.15625 -8.078125 C 15.039062 -6.742188 16.453125 -6.078125 18.390625 -6.078125 C 20.328125 -6.078125 21.632812 -6.742188 22.3125 -8.078125 C 23 -9.421875 23.34375 -11.460938 23.34375 -14.203125 L 23.34375 -17.1875 L 32.234375 -17.1875 L 32.234375 -15.3125 C 32.234375 -10.125 31.117188 -6.160156 28.890625 -3.421875 C 26.671875 -0.679688 23.140625 0.6875 18.296875 0.6875 Z M 23.34375 -29.5 L 23.34375 -33.953125 C 23.34375 -37.316406 23.015625 -39.722656 22.359375 -41.171875 C 21.703125 -42.628906 20.320312 -43.359375 18.21875 -43.359375 C 16.726562 -43.359375 15.597656 -43.015625 14.828125 -42.328125 C 14.066406 -41.640625 13.539062 -40.507812 13.25 -38.9375 C 12.96875 -37.375 12.828125 -35.113281 12.828125 -32.15625 L 12.828125 -29.5 Z M 23.34375 -29.5 "/></g></g></g><g fill="#16589a" fill-opacity="1"><g transform="translate(246.466016, 123.960541)"><g><path d="M 1.28125 -49.421875 L 10.515625 -49.421875 L 16.59375 -9.65625 L 22.75 -49.421875 L 31.640625 -49.421875 L 22.234375 0 L 11.03125 0 Z M 1.28125 -49.421875 "/></g></g></g><g fill="#1b75d0" fill-opacity="1"><g transform="translate(277.679872, 123.960541)"><g/></g></g><g fill="#1b75d0" fill-opacity="1"><g transform="translate(295.551752, 123.960541)"><g><path d="M 18.296875 0.6875 C 14.484375 0.6875 11.519531 -0.0351562 9.40625 -1.484375 C 7.300781 -2.941406 5.816406 -5.097656 4.953125 -7.953125 C 4.097656 -10.804688 3.671875 -14.507812 3.671875 -19.0625 L 3.671875 -30.359375 C 3.671875 -37.203125 4.738281 -42.203125 6.875 -45.359375 C 9.019531 -48.523438 12.828125 -50.109375 18.296875 -50.109375 C 22.285156 -50.109375 25.289062 -49.28125 27.3125 -47.625 C 29.34375 -45.976562 30.6875 -43.65625 31.34375 -40.65625 C 32 -37.664062 32.328125 -33.632812 32.328125 -28.5625 L 32.328125 -24.546875 L 12.828125 -24.546875 L 12.828125 -14.625 C 12.828125 -11.601562 13.269531 -9.421875 14.15625 -8.078125 C 15.039062 -6.742188 16.453125 -6.078125 18.390625 -6.078125 C 20.328125 -6.078125 21.632812 -6.742188 22.3125 -8.078125 C 23 -9.421875 23.34375 -11.460938 23.34375 -14.203125 L 23.34375 -17.1875 L 32.234375 -17.1875 L 32.234375 -15.3125 C 32.234375 -10.125 31.117188 -6.160156 28.890625 -3.421875 C 26.671875 -0.679688 23.140625 0.6875 18.296875 0.6875 Z M 23.34375 -29.5 L 23.34375 -33.953125 C 23.34375 -37.316406 23.015625 -39.722656 22.359375 -41.171875 C 21.703125 -42.628906 20.320312 -43.359375 18.21875 -43.359375 C 16.726562 -43.359375 15.597656 -43.015625 14.828125 -42.328125 C 14.066406 -41.640625 13.539062 -40.507812 13.25 -38.9375 C 12.96875 -37.375 12.828125 -35.113281 12.828125 -32.15625 L 12.828125 -29.5 Z M 23.34375 -29.5 "/></g></g></g><g fill="#1b75d0" fill-opacity="1"><g transform="translate(329.841874, 123.960541)"><g><path d="M 11.890625 -26 L 1.03125 -49.421875 L 9.75 -49.421875 L 17.015625 -33.78125 L 23.4375 -49.421875 L 32.40625 -49.421875 L 21.125 -24.890625 L 32.578125 0 L 23.859375 0 L 16.078125 -16.765625 L 9.40625 0 L 0.765625 0 Z M 11.890625 -26 "/></g></g></g><g fill="#1b75d0" fill-opacity="1"><g transform="translate(361.39562, 123.960541)"><g><path d="M 18.125 0.6875 C 14.25 0.6875 11.253906 -0.09375 9.140625 -1.65625 C 7.035156 -3.226562 5.597656 -5.425781 4.828125 -8.25 C 4.054688 -11.070312 3.671875 -14.648438 3.671875 -18.984375 L 3.671875 -30.359375 C 3.671875 -34.804688 4.054688 -38.453125 4.828125 -41.296875 C 5.597656 -44.148438 7.035156 -46.332031 9.140625 -47.84375 C 11.253906 -49.351562 14.25 -50.109375 18.125 -50.109375 C 21.664062 -50.109375 24.414062 -49.535156 26.375 -48.390625 C 28.34375 -47.253906 29.710938 -45.5625 30.484375 -43.3125 C 31.253906 -41.0625 31.640625 -38.140625 31.640625 -34.546875 L 31.640625 -31.640625 L 23.34375 -31.640625 L 23.34375 -34.640625 C 23.34375 -37.890625 22.984375 -40.15625 22.265625 -41.4375 C 21.554688 -42.71875 20.207031 -43.359375 18.21875 -43.359375 C 16.675781 -43.359375 15.535156 -43.015625 14.796875 -42.328125 C 14.054688 -41.640625 13.539062 -40.523438 13.25 -38.984375 C 12.96875 -37.453125 12.828125 -35.203125 12.828125 -32.234375 L 12.828125 -16.671875 C 12.828125 -13.828125 13 -11.648438 13.34375 -10.140625 C 13.6875 -8.628906 14.238281 -7.570312 15 -6.96875 C 15.769531 -6.375 16.867188 -6.078125 18.296875 -6.078125 C 20.410156 -6.078125 21.78125 -6.773438 22.40625 -8.171875 C 23.03125 -9.566406 23.34375 -11.71875 23.34375 -14.625 L 23.34375 -18.640625 L 31.640625 -18.640625 L 31.640625 -15.21875 C 31.640625 -9.863281 30.65625 -5.875 28.6875 -3.25 C 26.71875 -0.625 23.195312 0.6875 18.125 0.6875 Z M 18.125 0.6875 "/></g></g></g><g fill="#1b75d0" fill-opacity="1"><g transform="translate(394.83062, 123.960541)"><g><path d="M 4.875 -69.265625 L 14.03125 -69.265625 L 14.03125 -44.296875 C 18.132812 -48.171875 22.265625 -50.109375 26.421875 -50.109375 C 29.097656 -50.109375 30.992188 -49.140625 32.109375 -47.203125 C 33.222656 -45.265625 33.78125 -42.867188 33.78125 -40.015625 L 33.78125 0 L 24.625 0 L 24.625 -37.375 C 24.625 -39.25 24.335938 -40.640625 23.765625 -41.546875 C 23.203125 -42.460938 22.175781 -42.921875 20.6875 -42.921875 C 18.695312 -42.921875 16.476562 -41.835938 14.03125 -39.671875 L 14.03125 0 L 4.875 0 Z M 4.875 -69.265625 "/></g></g></g><g fill="#1b75d0" fill-opacity="1"><g transform="translate(431.173026, 123.960541)"><g><path d="M 13.515625 0.6875 C 11.628906 0.6875 9.929688 0.144531 8.421875 -0.9375 C 6.910156 -2.019531 5.726562 -3.445312 4.875 -5.21875 C 4.019531 -6.988281 3.59375 -8.84375 3.59375 -10.78125 C 3.59375 -14.65625 4.414062 -17.800781 6.0625 -20.21875 C 7.71875 -22.644531 9.828125 -24.570312 12.390625 -26 C 14.960938 -27.425781 18.53125 -29.050781 23.09375 -30.875 L 23.09375 -34.375 C 23.09375 -37.625 22.765625 -39.914062 22.109375 -41.25 C 21.453125 -42.59375 20.125 -43.265625 18.125 -43.265625 C 14.644531 -43.265625 12.90625 -40.929688 12.90625 -36.265625 L 12.90625 -33.78125 L 3.84375 -34.125 C 3.957031 -39.59375 5.210938 -43.625 7.609375 -46.21875 C 10.003906 -48.8125 13.710938 -50.109375 18.734375 -50.109375 C 23.460938 -50.109375 26.894531 -48.8125 29.03125 -46.21875 C 31.164062 -43.625 32.234375 -39.707031 32.234375 -34.46875 L 32.234375 -11.890625 C 32.234375 -8.179688 32.519531 -4.21875 33.09375 0 L 24.71875 0 C 24.082031 -3.25 23.679688 -5.671875 23.515625 -7.265625 C 22.828125 -5.046875 21.640625 -3.164062 19.953125 -1.625 C 18.273438 -0.0820312 16.128906 0.6875 13.515625 0.6875 Z M 17.109375 -7.1875 C 18.304688 -7.1875 19.472656 -7.65625 20.609375 -8.59375 C 21.742188 -9.53125 22.570312 -10.425781 23.09375 -11.28125 L 23.09375 -25.3125 C 20.632812 -23.945312 18.734375 -22.765625 17.390625 -21.765625 C 16.054688 -20.765625 14.945312 -19.609375 14.0625 -18.296875 C 13.175781 -16.984375 12.734375 -15.414062 12.734375 -13.59375 C 12.734375 -11.539062 13.101562 -9.957031 13.84375 -8.84375 C 14.59375 -7.738281 15.679688 -7.1875 17.109375 -7.1875 Z M 17.109375 -7.1875 "/></g></g></g><g fill="#1b75d0" fill-opacity="1"><g transform="translate(465.890702, 123.960541)"><g><path d="M 4.625 -49.421875 L 13.765625 -49.421875 L 13.765625 -44.546875 C 17.703125 -48.253906 21.722656 -50.109375 25.828125 -50.109375 C 28.503906 -50.109375 30.410156 -49.140625 31.546875 -47.203125 C 32.691406 -45.265625 33.265625 -42.867188 33.265625 -40.015625 L 33.265625 0 L 24.109375 0 L 24.109375 -37.375 C 24.109375 -39.25 23.820312 -40.640625 23.25 -41.546875 C 22.6875 -42.460938 21.664062 -42.921875 20.1875 -42.921875 C 18.351562 -42.921875 16.210938 -41.894531 13.765625 -39.84375 L 13.765625 0 L 4.625 0 Z M 4.625 -49.421875 "/></g></g></g><g fill="#1b75d0" fill-opacity="1"><g transform="translate(501.720023, 123.960541)"><g><path d="M 17.4375 15.3125 C 12.65625 15.3125 8.835938 14.554688 5.984375 13.046875 C 3.128906 11.535156 1.703125 9.179688 1.703125 5.984375 C 1.703125 3.816406 2.375 1.9375 3.71875 0.34375 C 5.0625 -1.25 6.757812 -2.53125 8.8125 -3.5 C 7.269531 -3.957031 6.082031 -4.671875 5.25 -5.640625 C 4.425781 -6.609375 4.015625 -7.664062 4.015625 -8.8125 C 4.015625 -10.519531 4.441406 -12 5.296875 -13.25 C 6.148438 -14.507812 7.550781 -16.019531 9.5 -17.78125 C 7.550781 -19.269531 6.109375 -21.140625 5.171875 -23.390625 C 4.234375 -25.640625 3.765625 -28.675781 3.765625 -32.5 C 3.765625 -38.257812 4.945312 -42.632812 7.3125 -45.625 C 9.675781 -48.613281 13.140625 -50.109375 17.703125 -50.109375 C 20.328125 -50.109375 22.460938 -49.648438 24.109375 -48.734375 C 25.765625 -47.828125 27.019531 -46.460938 27.875 -44.640625 C 28.28125 -45.265625 29.125 -46.101562 30.40625 -47.15625 C 31.6875 -48.21875 33.066406 -49.085938 34.546875 -49.765625 L 35.921875 -50.375 L 38.21875 -44.46875 C 37.082031 -44.238281 35.5 -43.753906 33.46875 -43.015625 C 31.445312 -42.273438 30.238281 -41.703125 29.84375 -41.296875 C 30.238281 -40.273438 30.59375 -38.851562 30.90625 -37.03125 C 31.226562 -35.207031 31.390625 -33.609375 31.390625 -32.234375 C 31.390625 -26.816406 30.332031 -22.613281 28.21875 -19.625 C 26.113281 -16.632812 22.609375 -15.140625 17.703125 -15.140625 C 16.160156 -15.140625 14.59375 -15.335938 13 -15.734375 C 11.914062 -14.140625 11.375 -12.882812 11.375 -11.96875 C 11.375 -11.34375 11.703125 -10.84375 12.359375 -10.46875 C 13.015625 -10.101562 14.054688 -9.863281 15.484375 -9.75 L 23.171875 -9.0625 C 27.046875 -8.71875 29.925781 -7.546875 31.8125 -5.546875 C 33.695312 -3.554688 34.640625 -0.707031 34.640625 3 C 34.640625 11.207031 28.90625 15.3125 17.4375 15.3125 Z M 17.703125 -21.546875 C 20.148438 -21.546875 21.742188 -22.398438 22.484375 -24.109375 C 23.234375 -25.828125 23.609375 -28.625 23.609375 -32.5 C 23.609375 -36.425781 23.234375 -39.285156 22.484375 -41.078125 C 21.742188 -42.878906 20.175781 -43.78125 17.78125 -43.78125 C 15.394531 -43.78125 13.785156 -42.878906 12.953125 -41.078125 C 12.128906 -39.285156 11.71875 -36.425781 11.71875 -32.5 C 11.71875 -28.957031 12.128906 -26.242188 12.953125 -24.359375 C 13.785156 -22.484375 15.367188 -21.546875 17.703125 -21.546875 Z M 18.125 8.125 C 21.375 8.125 23.769531 7.738281 25.3125 6.96875 C 26.851562 6.195312 27.625 4.957031 27.625 3.25 C 27.625 1.65625 27.140625 0.472656 26.171875 -0.296875 C 25.203125 -1.066406 23.429688 -1.566406 20.859375 -1.796875 L 13.078125 -2.484375 C 11.878906 -1.285156 10.96875 -0.234375 10.34375 0.671875 C 9.71875 1.585938 9.40625 2.585938 9.40625 3.671875 C 9.40625 5.210938 10.046875 6.335938 11.328125 7.046875 C 12.609375 7.765625 14.875 8.125 18.125 8.125 Z M 18.125 8.125 "/></g></g></g><g fill="#1b75d0" fill-opacity="1"><g transform="translate(537.207304, 123.960541)"><g><path d="M 18.296875 0.6875 C 14.484375 0.6875 11.519531 -0.0351562 9.40625 -1.484375 C 7.300781 -2.941406 5.816406 -5.097656 4.953125 -7.953125 C 4.097656 -10.804688 3.671875 -14.507812 3.671875 -19.0625 L 3.671875 -30.359375 C 3.671875 -37.203125 4.738281 -42.203125 6.875 -45.359375 C 9.019531 -48.523438 12.828125 -50.109375 18.296875 -50.109375 C 22.285156 -50.109375 25.289062 -49.28125 27.3125 -47.625 C 29.34375 -45.976562 30.6875 -43.65625 31.34375 -40.65625 C 32 -37.664062 32.328125 -33.632812 32.328125 -28.5625 L 32.328125 -24.546875 L 12.828125 -24.546875 L 12.828125 -14.625 C 12.828125 -11.601562 13.269531 -9.421875 14.15625 -8.078125 C 15.039062 -6.742188 16.453125 -6.078125 18.390625 -6.078125 C 20.328125 -6.078125 21.632812 -6.742188 22.3125 -8.078125 C 23 -9.421875 23.34375 -11.460938 23.34375 -14.203125 L 23.34375 -17.1875 L 32.234375 -17.1875 L 32.234375 -15.3125 C 32.234375 -10.125 31.117188 -6.160156 28.890625 -3.421875 C 26.671875 -0.679688 23.140625 0.6875 18.296875 0.6875 Z M 23.34375 -29.5 L 23.34375 -33.953125 C 23.34375 -37.316406 23.015625 -39.722656 22.359375 -41.171875 C 21.703125 -42.628906 20.320312 -43.359375 18.21875 -43.359375 C 16.726562 -43.359375 15.597656 -43.015625 14.828125 -42.328125 C 14.066406 -41.640625 13.539062 -40.507812 13.25 -38.9375 C 12.96875 -37.375 12.828125 -35.113281 12.828125 -32.15625 L 12.828125 -29.5 Z M 23.34375 -29.5 "/></g></g></g></svg>